<?xml version='1.0' encoding='UTF-8' standalone='no'?>
<!-- Created with Fritzing (http://www.fritzing.org/) -->
<svg xmlns="http://www.w3.org/2000/svg" width="1.35in" version="1.2"  height="0.901763in" viewBox="0 0 97.2 64.9269" baseProfile="tiny" x="0in" y="0in">
    <desc >
        <referenceFile >Non_Latching Relay Breakout rev C_pcb.svg</referenceFile>
    </desc>
    <desc >Fritzing footprint generated by brd2svg</desc>
    <g gorn="0.2" id="silkscreen" >
        <path stroke="white"  d="M0.288,7.4263A6.912,6.912,0,0,1,7.4453,0.290177L89.3966,0.290177A7.0942,7.0942,0,0,1,96.912,7.4263L96.912,53.8111A7.0942,7.0942,0,0,1,89.3966,60.9472L7.4453,60.9472A6.912,6.912,0,0,1,0.288,53.8111L0.288,7.4263" fill="none" stroke-width="0.576"/>
        <g >
            <title >element:X1</title>
            <g >
                <title >package:RELAY_EE2_NOLATCH</title>
                <line stroke="white" stroke-linecap="round"  y1="1.78235" y2="44.302" x1="29.965" x2="29.965" stroke-width="0.432"/>
                <line stroke="white" stroke-linecap="round"  y1="44.302" y2="44.302" x1="29.965" x2="51.6784" stroke-width="0.432"/>
                <line stroke="white" stroke-linecap="round"  y1="44.302" y2="1.78235" x1="51.6784" x2="51.6784" stroke-width="0.432"/>
                <line stroke="white" stroke-linecap="round"  y1="1.78235" y2="1.78235" x1="51.6784" x2="43.7131" stroke-width="0.432"/>
                <line stroke="white" stroke-linecap="round"  y1="1.78235" y2="5.49574" x1="43.7131" x2="43.7131" stroke-width="0.432"/>
                <line stroke="white" stroke-linecap="round"  y1="5.49574" y2="5.49574" x1="43.7131" x2="37.9304" stroke-width="0.432"/>
                <line stroke="white" stroke-linecap="round"  y1="1.78235" y2="1.78235" x1="43.7131" x2="37.9304" stroke-width="0.432"/>
                <line stroke="white" stroke-linecap="round"  y1="5.49574" y2="1.78235" x1="37.9304" x2="37.9304" stroke-width="0.432"/>
                <line stroke="white" stroke-linecap="round"  y1="1.78235" y2="1.78235" x1="37.9304" x2="29.965" stroke-width="0.432"/>
                <line stroke="white" stroke-linecap="round"  y1="8.37576" y2="10.8958" x1="48.0784" x2="48.0784" stroke-width="0.432"/>
                <line stroke="white" stroke-linecap="round"  y1="10.8958" y2="10.8958" x1="48.0784" x2="42.48" stroke-width="0.432"/>
                <line stroke="white" stroke-linecap="round"  y1="10.8958" y2="7.29576" x1="42.48" x2="42.48" stroke-width="0.432"/>
                <line stroke="white" stroke-linecap="round"  y1="7.29576" y2="7.29576" x1="42.48" x2="38.88" stroke-width="0.432"/>
                <line stroke="white" stroke-linecap="round"  y1="14.4958" y2="14.4958" x1="38.88" x2="42.48" stroke-width="0.432"/>
                <line stroke="white" stroke-linecap="round"  y1="14.4958" y2="10.8958" x1="42.48" x2="42.48" stroke-width="0.432"/>
                <line stroke="white" stroke-linecap="round"  y1="7.29576" y2="10.8958" x1="38.88" x2="38.88" stroke-width="0.432"/>
                <line stroke="white" stroke-linecap="round"  y1="10.8958" y2="10.8958" x1="38.88" x2="33.565" stroke-width="0.432"/>
                <line stroke="white" stroke-linecap="round"  y1="10.8958" y2="14.4958" x1="38.88" x2="38.88" stroke-width="0.432"/>
                <line stroke="white" stroke-linecap="round"  y1="10.8958" y2="8.37576" x1="33.565" x2="33.565" stroke-width="0.432"/>
                <line stroke="white" stroke-linecap="round"  y1="7.29576" y2="14.4958" x1="38.88" x2="42.48" stroke-width="0.432"/>
            </g>
        </g>
        <g >
            <title >element:X3</title>
            <g >
                <title >package:TERMBLOCK_1X3-3.5MM</title>
                <line stroke="white" stroke-linecap="round"  y1="45.0844" y2="60.9584" x1="30.1181" x2="30.1181" stroke-width="0.576"/>
                <line stroke="white" stroke-linecap="round"  y1="60.9584" y2="64.9269" x1="30.1181" x2="30.1181" stroke-width="0.576"/>
                <line stroke="white" stroke-linecap="round"  y1="64.9269" y2="64.9269" x1="30.1181" x2="59.8819" stroke-width="0.576"/>
                <line stroke="white" stroke-linecap="round"  y1="64.9269" y2="60.9584" x1="59.8819" x2="59.8819" stroke-width="0.576"/>
                <line stroke="white" stroke-linecap="round"  y1="60.9584" y2="45.0844" x1="59.8819" x2="59.8819" stroke-width="0.576"/>
                <line stroke="white" stroke-linecap="round"  y1="45.0844" y2="45.0844" x1="59.8819" x2="30.1181" stroke-width="0.576"/>
                <line stroke="white" stroke-linecap="round"  y1="60.9584" y2="60.9584" x1="30.1181" x2="59.8819" stroke-width="0.576"/>
            </g>
        </g>
        <g >
            <title >element:X4</title>
            <g >
                <title >package:JSTPH3</title>
                <line stroke="white" stroke-linecap="round"  y1="39.8148" y2="21.3896" x1="1.44142" x2="1.44142" stroke-width="0.576"/>
                <line stroke="white" stroke-linecap="round"  y1="16.429" y2="16.429" x1="11.3627" x2="22.7012" stroke-width="0.576"/>
                <line stroke="white" stroke-linecap="round"  y1="16.429" y2="18.8384" x1="22.7012" x2="22.7012" stroke-width="0.576"/>
                <line stroke="white" stroke-linecap="round"  y1="18.8384" y2="18.8384" x1="22.7012" x2="15.6146" stroke-width="0.576"/>
                <line stroke="white" stroke-linecap="round"  y1="18.8384" y2="28.4762" x1="15.6146" x2="15.6146" stroke-width="0.576"/>
                <line stroke="white" stroke-linecap="round"  y1="38.3975" y2="42.366" x1="15.6146" x2="15.6146" stroke-width="0.576"/>
                <line stroke="white" stroke-linecap="round"  y1="42.366" y2="42.366" x1="15.6146" x2="22.7012" stroke-width="0.576"/>
                <line stroke="white" stroke-linecap="round"  y1="42.366" y2="44.7754" x1="22.7012" x2="22.7012" stroke-width="0.576"/>
                <line stroke="white" stroke-linecap="round"  y1="44.7754" y2="44.7754" x1="22.7012" x2="11.3627" stroke-width="0.576"/>
            </g>
        </g>
        <g >
            <title >element:X5</title>
            <g >
                <title >package:P-2060-403/998-404</title>
                <line stroke="white" stroke-linecap="round"  y1="47.3266" y2="47.4683" x1="94.433" x2="94.433" stroke-width="0.566929"/>
                <line stroke="white" stroke-linecap="round"  y1="47.3266" y2="47.4683" x1="94.1486" x2="94.1486" stroke-width="0.566929"/>
                <line stroke="white" stroke-linecap="round"  y1="47.3266" y2="47.3266" x1="94.433" x2="93.5136" stroke-width="0.566929"/>
                <line stroke="white" stroke-linecap="round"  y1="15.1808" y2="15.2095" x1="94.433" x2="94.433" stroke-width="0.566929"/>
                <line stroke="white" stroke-linecap="round"  y1="15.1239" y2="15.1808" x1="94.4316" x2="94.433" stroke-width="0.566929"/>
                <line stroke="white" stroke-linecap="round"  y1="15.0675" y2="15.1239" x1="94.4287" x2="94.4316" stroke-width="0.566929"/>
                <line stroke="white" stroke-linecap="round"  y1="15.0391" y2="15.0675" x1="94.4266" x2="94.4287" stroke-width="0.566929"/>
                <line stroke="white" stroke-linecap="round"  y1="15.0111" y2="15.0391" x1="94.4237" x2="94.4266" stroke-width="0.566929"/>
                <line stroke="white" stroke-linecap="round"  y1="14.9556" y2="15.0111" x1="94.4179" x2="94.4237" stroke-width="0.566929"/>
                <line stroke="white" stroke-linecap="round"  y1="14.9008" y2="14.9556" x1="94.41" x2="94.4179" stroke-width="0.566929"/>
                <line stroke="white" stroke-linecap="round"  y1="14.8467" y2="14.9008" x1="94.3999" x2="94.41" stroke-width="0.566929"/>
                <line stroke="white" stroke-linecap="round"  y1="14.7937" y2="14.8467" x1="94.3877" x2="94.3999" stroke-width="0.566929"/>
                <line stroke="white" stroke-linecap="round"  y1="14.7418" y2="14.7937" x1="94.3747" x2="94.3877" stroke-width="0.566929"/>
                <line stroke="white" stroke-linecap="round"  y1="14.7163" y2="14.7418" x1="94.3668" x2="94.3747" stroke-width="0.566929"/>
                <line stroke="white" stroke-linecap="round"  y1="14.691" y2="14.7163" x1="94.3589" x2="94.3668" stroke-width="0.566929"/>
                <line stroke="white" stroke-linecap="round"  y1="14.6417" y2="14.691" x1="94.3416" x2="94.3589" stroke-width="0.566929"/>
                <line stroke="white" stroke-linecap="round"  y1="14.5938" y2="14.6417" x1="94.3214" x2="94.3416" stroke-width="0.566929"/>
                <line stroke="white" stroke-linecap="round"  y1="14.5473" y2="14.5938" x1="94.3006" x2="94.3214" stroke-width="0.566929"/>
                <line stroke="white" stroke-linecap="round"  y1="14.5025" y2="14.5473" x1="94.2775" x2="94.3006" stroke-width="0.566929"/>
                <line stroke="white" stroke-linecap="round"  y1="14.4595" y2="14.5025" x1="94.2523" x2="94.2775" stroke-width="0.566929"/>
                <line stroke="white" stroke-linecap="round"  y1="14.4384" y2="14.4595" x1="94.2386" x2="94.2523" stroke-width="0.566929"/>
                <line stroke="white" stroke-linecap="round"  y1="14.4181" y2="14.4384" x1="94.2257" x2="94.2386" stroke-width="0.566929"/>
                <line stroke="white" stroke-linecap="round"  y1="14.3778" y2="14.4181" x1="94.1969" x2="94.2257" stroke-width="0.566929"/>
                <line stroke="white" stroke-linecap="round"  y1="14.3379" y2="14.3778" x1="94.1652" x2="94.1969" stroke-width="0.566929"/>
                <line stroke="white" stroke-linecap="round"  y1="14.318" y2="14.3379" x1="94.1486" x2="94.1652" stroke-width="0.566929"/>
                <line stroke="white" stroke-linecap="round"  y1="14.206" y2="14.318" x1="94.0478" x2="94.1486" stroke-width="0.566929"/>
                <line stroke="white" stroke-linecap="round"  y1="13.9994" y2="14.206" x1="93.839" x2="94.0478" stroke-width="0.566929"/>
                <line stroke="white" stroke-linecap="round"  y1="13.8177" y2="13.9994" x1="93.6238" x2="93.839" stroke-width="0.566929"/>
                <line stroke="white" stroke-linecap="round"  y1="13.7361" y2="13.8177" x1="93.5136" x2="93.6238" stroke-width="0.566929"/>
                <line stroke="white" stroke-linecap="round"  y1="47.2424" y2="47.3266" x1="93.6238" x2="93.5136" stroke-width="0.566929"/>
                <line stroke="white" stroke-linecap="round"  y1="47.0553" y2="47.2424" x1="93.8398" x2="93.6238" stroke-width="0.566929"/>
                <line stroke="white" stroke-linecap="round"  y1="46.8436" y2="47.0553" x1="94.0478" x2="93.8398" stroke-width="0.566929"/>
                <line stroke="white" stroke-linecap="round"  y1="46.7288" y2="46.8436" x1="94.1486" x2="94.0478" stroke-width="0.566929"/>
                <line stroke="white" stroke-linecap="round"  y1="46.7083" y2="46.7288" x1="94.1652" x2="94.1486" stroke-width="0.566929"/>
                <line stroke="white" stroke-linecap="round"  y1="46.6672" y2="46.7083" x1="94.1969" x2="94.1652" stroke-width="0.566929"/>
                <line stroke="white" stroke-linecap="round"  y1="46.6262" y2="46.6672" x1="94.2257" x2="94.1969" stroke-width="0.566929"/>
                <line stroke="white" stroke-linecap="round"  y1="46.6049" y2="46.6262" x1="94.2386" x2="94.2257" stroke-width="0.566929"/>
                <line stroke="white" stroke-linecap="round"  y1="46.5834" y2="46.6049" x1="94.2523" x2="94.2386" stroke-width="0.566929"/>
                <line stroke="white" stroke-linecap="round"  y1="46.5389" y2="46.5834" x1="94.2775" x2="94.2523" stroke-width="0.566929"/>
                <line stroke="white" stroke-linecap="round"  y1="46.4923" y2="46.5389" x1="94.3006" x2="94.2775" stroke-width="0.566929"/>
                <line stroke="white" stroke-linecap="round"  y1="46.4448" y2="46.4923" x1="94.3222" x2="94.3006" stroke-width="0.566929"/>
                <line stroke="white" stroke-linecap="round"  y1="46.3951" y2="46.4448" x1="94.3416" x2="94.3222" stroke-width="0.566929"/>
                <line stroke="white" stroke-linecap="round"  y1="46.3444" y2="46.3951" x1="94.3589" x2="94.3416" stroke-width="0.566929"/>
                <line stroke="white" stroke-linecap="round"  y1="46.3186" y2="46.3444" x1="94.3675" x2="94.3589" stroke-width="0.566929"/>
                <line stroke="white" stroke-linecap="round"  y1="46.2923" y2="46.3186" x1="94.3747" x2="94.3675" stroke-width="0.566929"/>
                <line stroke="white" stroke-linecap="round"  y1="46.239" y2="46.2923" x1="94.3884" x2="94.3747" stroke-width="0.566929"/>
                <line stroke="white" stroke-linecap="round"  y1="46.1845" y2="46.239" x1="94.3999" x2="94.3884" stroke-width="0.566929"/>
                <line stroke="white" stroke-linecap="round"  y1="46.129" y2="46.1845" x1="94.41" x2="94.3999" stroke-width="0.566929"/>
                <line stroke="white" stroke-linecap="round"  y1="46.0729" y2="46.129" x1="94.4179" x2="94.41" stroke-width="0.566929"/>
                <line stroke="white" stroke-linecap="round"  y1="46.0158" y2="46.0729" x1="94.4244" x2="94.4179" stroke-width="0.566929"/>
                <line stroke="white" stroke-linecap="round"  y1="45.987" y2="46.0158" x1="94.4266" x2="94.4244" stroke-width="0.566929"/>
                <line stroke="white" stroke-linecap="round"  y1="45.9583" y2="45.987" x1="94.4287" x2="94.4266" stroke-width="0.566929"/>
                <line stroke="white" stroke-linecap="round"  y1="45.9005" y2="45.9583" x1="94.4316" x2="94.4287" stroke-width="0.566929"/>
                <line stroke="white" stroke-linecap="round"  y1="45.8424" y2="45.9005" x1="94.433" x2="94.4316" stroke-width="0.566929"/>
                <line stroke="white" stroke-linecap="round"  y1="45.8132" y2="45.8424" x1="94.433" x2="94.433" stroke-width="0.566929"/>
                <line stroke="white" stroke-linecap="round"  y1="13.7361" y2="15.0116" x1="61.835" x2="61.835" stroke-width="0.566929"/>
                <line stroke="white" stroke-linecap="round"  y1="46.4762" y2="47.4683" x1="61.835" x2="61.835" stroke-width="0.566929"/>
                <line stroke="white" stroke-linecap="round"  y1="15.0326" y2="15.0116" x1="61.8353" x2="61.835" stroke-width="0.566929"/>
                <line stroke="white" stroke-linecap="round"  y1="15.0751" y2="15.0326" x1="61.8386" x2="61.8353" stroke-width="0.566929"/>
                <line stroke="white" stroke-linecap="round"  y1="15.1182" y2="15.0751" x1="61.8452" x2="61.8386" stroke-width="0.566929"/>
                <line stroke="white" stroke-linecap="round"  y1="15.1398" y2="15.1182" x1="61.8497" x2="61.8452" stroke-width="0.566929"/>
                <line stroke="white" stroke-linecap="round"  y1="15.1613" y2="15.1398" x1="61.8551" x2="61.8497" stroke-width="0.566929"/>
                <line stroke="white" stroke-linecap="round"  y1="15.2041" y2="15.1613" x1="61.8687" x2="61.8551" stroke-width="0.566929"/>
                <line stroke="white" stroke-linecap="round"  y1="15.2464" y2="15.2041" x1="61.886" x2="61.8687" stroke-width="0.566929"/>
                <line stroke="white" stroke-linecap="round"  y1="15.288" y2="15.2464" x1="61.907" x2="61.886" stroke-width="0.566929"/>
                <line stroke="white" stroke-linecap="round"  y1="15.328" y2="15.288" x1="61.9316" x2="61.907" stroke-width="0.566929"/>
                <line stroke="white" stroke-linecap="round"  y1="15.3665" y2="15.328" x1="61.96" x2="61.9316" stroke-width="0.566929"/>
                <line stroke="white" stroke-linecap="round"  y1="15.3852" y2="15.3665" x1="61.9756" x2="61.96" stroke-width="0.566929"/>
                <line stroke="white" stroke-linecap="round"  y1="15.4034" y2="15.3852" x1="61.992" x2="61.9756" stroke-width="0.566929"/>
                <line stroke="white" stroke-linecap="round"  y1="46.0502" y2="46.0187" x1="62.0277" x2="62.0671" stroke-width="0.566929"/>
                <line stroke="white" stroke-linecap="round"  y1="46.0845" y2="46.0502" x1="61.992" x2="62.0277" stroke-width="0.566929"/>
                <line stroke="white" stroke-linecap="round"  y1="46.1026" y2="46.0845" x1="61.9756" x2="61.992" stroke-width="0.566929"/>
                <line stroke="white" stroke-linecap="round"  y1="46.1213" y2="46.1026" x1="61.96" x2="61.9756" stroke-width="0.566929"/>
                <line stroke="white" stroke-linecap="round"  y1="46.1598" y2="46.1213" x1="61.9316" x2="61.96" stroke-width="0.566929"/>
                <line stroke="white" stroke-linecap="round"  y1="46.1998" y2="46.1598" x1="61.907" x2="61.9316" stroke-width="0.566929"/>
                <line stroke="white" stroke-linecap="round"  y1="46.2415" y2="46.1998" x1="61.886" x2="61.907" stroke-width="0.566929"/>
                <line stroke="white" stroke-linecap="round"  y1="46.2838" y2="46.2415" x1="61.8687" x2="61.886" stroke-width="0.566929"/>
                <line stroke="white" stroke-linecap="round"  y1="46.3265" y2="46.2838" x1="61.8551" x2="61.8687" stroke-width="0.566929"/>
                <line stroke="white" stroke-linecap="round"  y1="46.3481" y2="46.3265" x1="61.8497" x2="61.8551" stroke-width="0.566929"/>
                <line stroke="white" stroke-linecap="round"  y1="46.3697" y2="46.3481" x1="61.8452" x2="61.8497" stroke-width="0.566929"/>
                <line stroke="white" stroke-linecap="round"  y1="46.4127" y2="46.3697" x1="61.8386" x2="61.8452" stroke-width="0.566929"/>
                <line stroke="white" stroke-linecap="round"  y1="46.4553" y2="46.4127" x1="61.8353" x2="61.8386" stroke-width="0.566929"/>
                <line stroke="white" stroke-linecap="round"  y1="46.4762" y2="46.4553" x1="61.835" x2="61.8353" stroke-width="0.566929"/>
                <line stroke="white" stroke-linecap="round"  y1="47.4683" y2="47.4683" x1="61.835" x2="94.433" stroke-width="0.566929"/>
                <line stroke="white" stroke-linecap="round"  y1="13.7361" y2="13.7361" x1="93.5136" x2="61.835" stroke-width="0.566929"/>
            </g>
        </g>
        <line stroke="white"  y1="64.6389" y2="64.6389" fill="none" x1="30.1181" x2="59.8819" stroke-width="0.576" fill-opacity="1"/>
        <line stroke="white"  y1="64.6389" y2="61.2044" fill="none" x1="30.1181" x2="30.1181" stroke-width="0.576" fill-opacity="1"/>
        <line stroke="white"  y1="64.6389" y2="61.2044" fill="none" x1="59.8819" x2="59.8819" stroke-width="0.576" fill-opacity="1"/>
    </g>
    <g gorn="0.3" id="copper1" >
        <g gorn="0.3.0" id="copper0" >
            <circle stroke="#F7BD13" gorn="0.3.0.0" id="connector38pad" r="2.25666"  cx="45" cy="54.7222" fill="none" stroke-width="1.67868" connectorname="2"/>
            <g transform="matrix(0, -1, 1, 0, -4.49936, 45.3665)" >
                <g >
                    <g >
                        <rect width="2.83465" stroke="none" gorn="0.3.0.1.0.0.0" id="connector42pad"  height="13.0393" fill="#F7BD13" stroke-width="0" x="19.0162" y="18.4132"/>
                    </g>
                </g>
            </g>
            <g transform="matrix(0, -1, 1, 0, -15.8379, 56.705)" >
                <g >
                    <g >
                        <rect width="2.83465" stroke="none" gorn="0.3.0.2.0.0.0" id="connector40pad"  height="13.0393" fill="#F7BD13" stroke-width="0" x="19.0162" y="29.7518"/>
                    </g>
                </g>
            </g>
            <circle stroke="#F7BD13" gorn="0.3.0.3" id="connector37pad" r="2.25666"  cx="54.9212" cy="54.7222" fill="none" stroke-width="1.67868" connectorname="1"/>
            <circle stroke="#F7BD13" gorn="0.3.0.4" id="connector39pad" r="2.25666"  cx="35.0788" cy="54.7222" fill="none" stroke-width="1.67868" connectorname="3"/>
            <g transform="matrix(0, -1, 1, 0, -10.1686, 51.0358)" >
                <g >
                    <g >
                        <rect width="2.83465" stroke="none" gorn="0.3.0.5.0.0.0" id="connector41pad"  height="13.0393" fill="#F7BD13" stroke-width="0" x="19.0162" y="24.0825"/>
                    </g>
                </g>
            </g>
            <rect width="17.0078" stroke="none" gorn="0.3.0.6" id="connector45pad"  height="5.66929" fill="#F7BD13" stroke-width="0" x="79.1266" y="16.429"/>
            <circle stroke="#F7BD13" gorn="0.3.0.7" id="connector25pad" r="4.26331"  cx="90" cy="54.0022" fill="none" stroke-width="1.44" connectorname="P$1"/>
            <rect width="17.0078" stroke="none" gorn="0.3.0.8" id="connector47pad"  height="5.66929" fill="#F7BD13" stroke-width="0" x="79.1266" y="27.7675"/>
            <circle stroke="#F7BD13" gorn="0.3.0.9" id="connector26pad" r="4.26331"  cx="90" cy="7.20223" fill="none" stroke-width="1.44" connectorname="P$1"/>
            <rect width="17.0078" stroke="none" gorn="0.3.0.10" id="connector49pad"  height="5.66929" fill="#F7BD13" stroke-width="0" x="79.1266" y="39.1062"/>
            <circle stroke="#F7BD13" gorn="0.3.0.11" id="connector27pad" r="4.26331"  cx="7.2" cy="7.20223" fill="none" stroke-width="1.44" connectorname="P$1"/>
            <circle stroke="#F7BD13" gorn="0.3.0.12" id="connector28pad" r="4.26331"  cx="7.2" cy="54.0022" fill="none" stroke-width="1.44" connectorname="P$1"/>
        </g>
    </g>
</svg>
