<?xml version='1.0' encoding='UTF-8' standalone='no'?>
<!-- Created with Fritzing (http://www.fritzing.org/) -->
<svg xmlns="http://www.w3.org/2000/svg" viewBox="0 0 144 64.8" x="0in"  height="0.9in" y="0in" version="1.2" width="2in" baseProfile="tiny">
    <desc>
        <referenceFile>Adafruit PowerRelay Wing_pcb.svg</referenceFile>
    </desc>
    <desc >Fritzing footprint generated by brd2svg</desc>
    <g  id="silkscreen" gorn="0.1">
        <path d="M7.4592,64.512A6.912,6.912,0,0,1,0.288,57.376L0.288,7.42399A6.912,6.912,0,0,1,7.4592,0.288L136.541,0.288A6.912,6.912,0,0,1,143.712,7.42399L143.712,57.376A6.912,6.912,0,0,1,136.541,64.512L7.4592,64.512M133.488,7.2a3.312,3.312,0,1,0,6.624,0,3.312,3.312,0,1,0,-6.624,0zM133.488,57.6a3.312,3.312,0,1,0,6.624,0,3.312,3.312,0,1,0,-6.624,0z" stroke-width="0.576"  fill="none" stroke="white"/>
        <g >
            <title >element:JP1</title>
            <g >
                <title >package:TERMBLOCK_1X3_5.08MM</title>
                <line y2="55.5024" stroke-width="0.576" x2="140.516" y1="55.5024" x1="122.375"  stroke-linecap="round" stroke="white"/>
                <line y2="55.5024" stroke-width="0.576" x2="143.918" y1="55.5024" x1="140.516"  stroke-linecap="round" stroke="white"/>
                <line y2="9.29765" stroke-width="0.576" x2="143.918" y1="55.5024" x1="143.918"  stroke-linecap="round" stroke="white"/>
                <line y2="9.29765" stroke-width="0.576" x2="140.516" y1="9.29765" x1="143.918"  stroke-linecap="round" stroke="white"/>
                <line y2="9.29765" stroke-width="0.576" x2="122.375" y1="9.29765" x1="140.516"  stroke-linecap="round" stroke="white"/>
                <line y2="55.5024" stroke-width="0.576" x2="122.375" y1="9.29765" x1="122.375"  stroke-linecap="round" stroke="white"/>
                <line y2="9.29765" stroke-width="0.576" x2="140.516" y1="55.5024" x1="140.516"  stroke-linecap="round" stroke="white"/>
            </g>
        </g>
        <g >
            <title >element:MS2</title>
            <g >
                <title >package:FEATHERWING</title>
            </g>
        </g>
        <g >
            <title >element:U$1</title>
            <g >
                <title >package:RELAY_G5LE-1</title>
                <line y2="49.4078" stroke-width="0.36" x2="59.1024" y1="15.3922" x1="59.1024"  stroke-linecap="round" stroke="white"/>
                <path d="M59.1024,49.4078A5.66929,5.66929,0,0,0,64.7716,55.0772" stroke-width="0.36"  fill="none" stroke="white"/>
                <line y2="55.0772" stroke-width="0.36" x2="115.795" y1="55.0772" x1="64.7716"  stroke-linecap="round" stroke="white"/>
                <path d="M115.795,55.0772A5.66929,5.66929,0,0,0,121.465,49.4078" stroke-width="0.36"  fill="none" stroke="white"/>
                <line y2="15.3922" stroke-width="0.36" x2="121.465" y1="49.4078" x1="121.465"  stroke-linecap="round" stroke="white"/>
                <path d="M121.465,15.3922A5.66929,5.66929,0,0,0,115.795,9.72281" stroke-width="0.36"  fill="none" stroke="white"/>
                <line y2="9.72281" stroke-width="0.36" x2="64.7716" y1="9.72281" x1="115.795"  stroke-linecap="round" stroke="white"/>
                <path d="M64.7716,9.72281A5.66929,5.66929,0,0,0,59.1024,15.3922" stroke-width="0.36"  fill="none" stroke="white"/>
            </g>
        </g>
        <g >
            <title >element:U$7</title>
            <g >
                <title >package:FEATHERLOGO_MED</title>
            </g>
        </g>
    </g>
    <g  id="copper1" gorn="0.2">
        <g  id="copper0" gorn="0.2.0">
            <circle stroke-width="1.10268" connectorname="USB" cy="3.6" r="1.96866"  id="connector33pad" gorn="0.2.0.0" fill="none" cx="61.2" stroke="#F7BD13"/>
            <circle stroke-width="1.70078" connectorname="NC" cy="18" r="2.69292"  id="connector4pad" gorn="0.2.0.1" fill="none" cx="134.28" stroke="#F7BD13"/>
            <path d="m128.087,15.3071,12.3874,0,0,5.38582,-12.3874,0,0,-5.38582M131.587,18a2.69292,2.69292,0,1,0,5.38582,0,2.69292,2.69292,0,1,0,-5.38582,0z" stroke-width="0"  fill="#F7BD13" stroke="none"/>
            <circle stroke-width="1.85669" connectorname="P$2" cy="57.6" r="4.47165"  id="connector37pad" gorn="0.2.0.3" fill="none" cx="7.2" stroke="#F7BD13"/>
            <circle stroke-width="1.70078" connectorname="COM" cy="32.2582" r="2.69292"  id="connector5pad" gorn="0.2.0.4" fill="none" cx="134.28" stroke="#F7BD13"/>
            <path d="m128.087,29.5654,12.3874,0,0,5.38582,-12.3874,0,0,-5.38582M131.587,32.2582a2.69292,2.69292,0,1,0,5.38582,0,2.69292,2.69292,0,1,0,-5.38582,0z" stroke-width="0"  fill="#F7BD13" stroke="none"/>
            <circle stroke-width="1.75748" connectorname="NO" cy="46.8" r="2.72126"  id="connector6pad" gorn="0.2.0.6" fill="none" cx="134.28" stroke="#F7BD13"/>
            <path d="m128.021,44.0788,12.5178,0,0,5.44252,-12.5178,0,0,-5.44252M131.558,46.8a2.72126,2.72126,0,1,0,5.44252,0,2.72126,2.72126,0,1,0,-5.44252,0z" stroke-width="0"  fill="#F7BD13" stroke="none"/>
            <circle stroke-width="0.95868" connectorname="RELAY" cy="51.12" r="1.89666"  id="connector7pad" gorn="0.2.0.8" fill="none" cx="29.52" stroke="#F7BD13"/>
            <circle stroke-width="1.10268" connectorname="M" cy="3.6" r="1.96866"  id="connector31pad" gorn="0.2.0.9" fill="none" cx="75.6" stroke="#F7BD13"/>
            <circle stroke-width="1.10268" connectorname="RESET" cy="61.2" r="1.96866"  id="connector8pad" gorn="0.2.0.10" fill="none" cx="18" stroke="#F7BD13"/>
            <circle stroke-width="1.10268" connectorname="VBAT" cy="3.6" r="1.96866"  id="connector35pad" gorn="0.2.0.11" fill="none" cx="46.8" stroke="#F7BD13"/>
            <circle stroke-width="1.10268" connectorname="3.3V" cy="61.2" r="1.96866"  id="connector9pad" gorn="0.2.0.12" fill="none" cx="25.2" stroke="#F7BD13"/>
            <circle stroke-width="1.10268" connectorname="AREF" cy="61.2" r="1.96866"  id="connector10pad" gorn="0.2.0.13" fill="none" cx="32.4" stroke="#F7BD13"/>
            <circle stroke-width="1.10268" connectorname="GND" cy="61.2" r="1.96866"  id="connector11pad" gorn="0.2.0.14" fill="none" cx="39.6" stroke="#F7BD13"/>
            <circle stroke-width="1.10268" connectorname="A" cy="61.2" r="1.96866"  id="connector12pad" gorn="0.2.0.15" fill="none" cx="46.8" stroke="#F7BD13"/>
            <circle stroke-width="1.10268" connectorname="B" cy="61.2" r="1.96866"  id="connector13pad" gorn="0.2.0.16" fill="none" cx="54" stroke="#F7BD13"/>
            <circle stroke-width="1.10268" connectorname="C" cy="61.2" r="1.96866"  id="connector14pad" gorn="0.2.0.17" fill="none" cx="61.2" stroke="#F7BD13"/>
            <circle stroke-width="1.10268" connectorname="L" cy="3.6" r="1.96866"  id="connector30pad" gorn="0.2.0.18" fill="none" cx="82.8" stroke="#F7BD13"/>
            <circle stroke-width="1.10268" connectorname="D" cy="61.2" r="1.96866"  id="connector15pad" gorn="0.2.0.19" fill="none" cx="68.4" stroke="#F7BD13"/>
            <circle stroke-width="1.10268" connectorname="N" cy="3.6" r="1.96866"  id="connector32pad" gorn="0.2.0.20" fill="none" cx="68.4" stroke="#F7BD13"/>
            <circle stroke-width="1.10268" connectorname="E" cy="61.2" r="1.96866"  id="connector16pad" gorn="0.2.0.21" fill="none" cx="75.6" stroke="#F7BD13"/>
            <circle stroke-width="1.10268" connectorname="EN" cy="3.6" r="1.96866"  id="connector34pad" gorn="0.2.0.22" fill="none" cx="54" stroke="#F7BD13"/>
            <circle stroke-width="1.10268" connectorname="F" cy="61.2" r="1.96866"  id="connector17pad" gorn="0.2.0.23" fill="none" cx="82.8" stroke="#F7BD13"/>
            <circle stroke-width="1.85669" connectorname="P$1" cy="7.2" r="4.47165"  id="connector36pad" gorn="0.2.0.24" fill="none" cx="7.2" stroke="#F7BD13"/>
            <circle stroke-width="1.10268" connectorname="SCK" cy="61.2" r="1.96866"  id="connector18pad" gorn="0.2.0.25" fill="none" cx="90" stroke="#F7BD13"/>
            <circle stroke-width="1.10268" connectorname="MOSI" cy="61.2" r="1.96866"  id="connector19pad" gorn="0.2.0.26" fill="none" cx="97.2" stroke="#F7BD13"/>
            <circle stroke-width="1.10268" connectorname="MISO" cy="61.2" r="1.96866"  id="connector20pad" gorn="0.2.0.27" fill="none" cx="104.4" stroke="#F7BD13"/>
            <circle stroke-width="1.10268" connectorname="RX" cy="61.2" r="1.96866"  id="connector21pad" gorn="0.2.0.28" fill="none" cx="111.6" stroke="#F7BD13"/>
            <circle stroke-width="1.10268" connectorname="TX" cy="61.2" r="1.96866"  id="connector22pad" gorn="0.2.0.29" fill="none" cx="118.8" stroke="#F7BD13"/>
            <circle stroke-width="1.10268" connectorname="G" cy="61.2" r="1.96866"  id="connector23pad" gorn="0.2.0.30" fill="none" cx="126" stroke="#F7BD13"/>
            <circle stroke-width="1.10268" connectorname="SDA" cy="3.6" r="1.96866"  id="connector24pad" gorn="0.2.0.31" fill="none" cx="126" stroke="#F7BD13"/>
            <circle stroke-width="1.10268" connectorname="SCL" cy="3.6" r="1.96866"  id="connector25pad" gorn="0.2.0.32" fill="none" cx="118.8" stroke="#F7BD13"/>
            <circle stroke-width="1.10268" connectorname="H" cy="3.6" r="1.96866"  id="connector26pad" gorn="0.2.0.33" fill="none" cx="111.6" stroke="#F7BD13"/>
            <circle stroke-width="1.10268" connectorname="I" cy="3.6" r="1.96866"  id="connector27pad" gorn="0.2.0.34" fill="none" cx="104.4" stroke="#F7BD13"/>
            <circle stroke-width="1.10268" connectorname="J" cy="3.6" r="1.96866"  id="connector28pad" gorn="0.2.0.35" fill="none" cx="97.2" stroke="#F7BD13"/>
            <circle stroke-width="1.10268" connectorname="K" cy="3.6" r="1.96866"  id="connector29pad" gorn="0.2.0.36" fill="none" cx="90" stroke="#F7BD13"/>
        </g>
    </g>
</svg>
