<?xml version='1.0' encoding='UTF-8' standalone='no'?>
<!-- Created with Inkscape (http://www.inkscape.org/) -->
<svg xmlns="http://www.w3.org/2000/svg" height="58.464565" gorn="0"  width="79.724411" id="0" version="1.1">
    <desc  id="0.0">
        <referenceFile  id="0.0.0">svg.pcb.G5LE-power-relay.svg</referenceFile>
    </desc>
    <defs  id="0.1"/>
    <metadata  id="0.2">
        <rdf:RDF xmlns:rdf="http://www.w3.org/1999/02/22-rdf-syntax-ns#" id="0.2.0">
            <cc:Work xmlns:rdf="http://www.w3.org/1999/02/22-rdf-syntax-ns#" rdf:about="" id="0.2.0.0" xmlns:cc="http://creativecommons.org/ns#">
                <dc:format xmlns:dc="http://purl.org/dc/elements/1.1/" id="0.2.0.0.0">image/svg+xml</dc:format>
                <dc:type xmlns:rdf="http://www.w3.org/1999/02/22-rdf-syntax-ns#" rdf:resource="http://purl.org/dc/dcmitype/StillImage" xmlns:dc="http://purl.org/dc/elements/1.1/" id="0.2.0.0.1"/>
                <dc:title xmlns:dc="http://purl.org/dc/elements/1.1/" id="0.2.0.0.2"/>
            </cc:Work>
        </rdf:RDF>
    </metadata>
    <g  transform="translate(0,-993.89762)">
        <g gorn="0.3.0"  id="layer1">
            <g gorn="0.3.0.0"  id="silkscreen">
                <g  transform="translate(0,993.89762)">
                    <g gorn="0.3.0.0.0.0"  id="0.3.0.0">
                        <path stroke-opacity="1" style="stroke-linecap:butt;stroke-linejoin:miter;stroke-miterlimit:4;stroke-dasharray:none" stroke="#ffffff" d="m 0,58.464565 79.724409,0 0,-58.4645666520343 -79.724409,0 z" gorn="0.3.0.0.0.0.0"  fill="none" id="path3761" stroke-width="0.99921262"/>
                    </g>
                </g>
            </g>
            <g gorn="0.3.0.1"  id="copper0">
                <g gorn="0.3.0.1.0"  id="copper1">
                    <g  transform="translate(0,993.89762)">
                        <g gorn="0.3.0.1.0.0.0"  id="0.3.1.0">
                            <path stroke-opacity="1" style="opacity:0.98000004;stroke-miterlimit:4;stroke-dasharray:none" stroke="#f7bd13" d="m 13.110236,29.232283 a 4.0748034,4.0748034 0 1 1 -8.1496065,0 4.0748034,4.0748034 0 1 1 8.1496065,0 z" gorn="0.3.0.1.0.0.0.0"  fill="none" id="connector2pin" stroke-width="3.54330707"/>
                        </g>
                    </g>
                    <g  transform="translate(7.2637798,1015.1575)">
                        <g gorn="0.3.0.1.0.1.0"  id="0.3.1.1">
                            <path stroke-opacity="1" style="opacity:0.98000004;stroke-miterlimit:4;stroke-dasharray:none" stroke="#ffffff" d="m 13.110236,29.232283 a 4.0748034,4.0748034 0 1 1 -8.1496065,0 4.0748034,4.0748034 0 1 1 8.1496065,0 z" gorn="0.3.0.1.0.1.0.0"  fill="none" id="path3782-7" stroke-width="3.54330707"/>
                        </g>
                    </g>
                    <g  transform="translate(50.314961,1015.1575)">
                        <g gorn="0.3.0.1.0.2.0"  id="0.3.1.2">
                            <path stroke-opacity="1" style="opacity:0.98000004;stroke-miterlimit:4;stroke-dasharray:none" stroke="#ffffff" d="m 13.110236,29.232283 a 4.0748034,4.0748034 0 1 1 -8.1496065,0 4.0748034,4.0748034 0 1 1 8.1496065,0 z" gorn="0.3.0.1.0.2.0.0"  fill="none" id="path3782-7-5" stroke-width="3.54330707"/>
                        </g>
                    </g>
                    <g  transform="translate(7.2637798,1015.1575)">
                        <g gorn="0.3.0.1.0.3.0"  id="0.3.1.3">
                            <path stroke-opacity="1" style="opacity:0.98000004;stroke-miterlimit:4;stroke-dasharray:none" stroke="#f7bd13" d="m 13.110236,29.232283 a 4.0748034,4.0748034 0 1 1 -8.1496065,0 4.0748034,4.0748034 0 1 1 8.1496065,0 z" gorn="0.3.0.1.0.3.0.0"  fill="none" id="connector1pin" stroke-width="3.54330707"/>
                            <rect height="0.0233903" x="9.02374" stroke="none" y="28.5119" fill="none" width="0.0233858" id="connector1terminal" stroke-width="0"/>
                        </g>
                    </g>
                    <g  transform="translate(50.314961,1015.1575)">
                        <g gorn="0.3.0.1.0.4.0"  id="0.3.1.4">
                            <path stroke-opacity="1" style="opacity:0.98000004;stroke-miterlimit:4;stroke-dasharray:none" stroke="#f7bd13" d="m 13.110236,29.232283 a 4.0748034,4.0748034 0 1 1 -8.1496065,0 4.0748034,4.0748034 0 1 1 8.1496065,0 z" gorn="0.3.0.1.0.4.0.0"  fill="none" id="connector0pin" stroke-width="3.54330707"/>
                            <rect height="0.0233903" x="14.5102" stroke="none" y="29.2206" fill="none" width="0.0233858" id="connector0terminal" stroke-width="0"/>
                        </g>
                    </g>
                    <g  transform="matrix(1,0,0,-1,7.2637798,1031.1023)">
                        <g gorn="0.3.0.1.0.5.0"  id="0.3.1.5">
                            <path stroke-opacity="1" style="opacity:0.98000004;stroke-miterlimit:4;stroke-dasharray:none" stroke="#f7bd13" d="m 13.110236,29.232283 a 4.0748034,4.0748034 0 1 1 -8.1496065,0 4.0748034,4.0748034 0 1 1 8.1496065,0 z" gorn="0.3.0.1.0.5.0.0"  fill="none" id="connector4pin" stroke-width="3.54330707"/>
                        </g>
                    </g>
                    <g  transform="matrix(1,0,0,-1,50.314961,1031.1023)">
                        <g gorn="0.3.0.1.0.6.0"  id="0.3.1.6">
                            <path stroke-opacity="1" style="opacity:0.98000004;stroke-miterlimit:4;stroke-dasharray:none" stroke="#f7bd13" d="m 13.110236,29.232283 a 4.0748034,4.0748034 0 1 1 -8.1496065,0 4.0748034,4.0748034 0 1 1 8.1496065,0 z" gorn="0.3.0.1.0.6.0.0"  fill="none" id="connector5pin" stroke-width="3.54330707"/>
                        </g>
                    </g>
                </g>
            </g>
        </g>
    </g>
</svg>
