<?xml version='1.0' encoding='UTF-8' standalone='no'?>
<!-- Created with Inkscape (http://www.inkscape.org/) -->
<svg xmlns="http://www.w3.org/2000/svg" height="58.464565" id="0" width="79.724411" version="1.1" >
    <desc id="0.0" oldid="0.0">
        <referenceFile id="0.0.0" oldid="0.0.0">svg.pcb.G5LE-power-relay.svg</referenceFile>
    </desc>
    <defs id="0.1" oldid="0.1"/>
    <metadata id="0.2" oldid="0.2">
        <rdf:RDF xmlns:rdf="http://www.w3.org/1999/02/22-rdf-syntax-ns#" id="0.2.0" oldid="0.2.0">
            <cc:Work xmlns:rdf="http://www.w3.org/1999/02/22-rdf-syntax-ns#" rdf:about="" id="0.2.0.0" oldid="0.2.0.0" xmlns:cc="http://creativecommons.org/ns#">
                <dc:format xmlns:dc="http://purl.org/dc/elements/1.1/" id="0.2.0.0.0" oldid="0.2.0.0.0">image/svg+xml</dc:format>
                <dc:type rdf:resource="http://purl.org/dc/dcmitype/StillImage" xmlns:dc="http://purl.org/dc/elements/1.1/" xmlns:rdf="http://www.w3.org/1999/02/22-rdf-syntax-ns#" id="0.2.0.0.1" oldid="0.2.0.0.1"/>
                <dc:title xmlns:dc="http://purl.org/dc/elements/1.1/" id="0.2.0.0.2" oldid="0.2.0.0.2"/>
            </cc:Work>
        </rdf:RDF>
    </metadata>
    <g transform="translate(0,-993.89762)">
        <g id="layer1">
            <g id="silkscreen">
                <g transform="translate(0,993.89762)">
                    <g id="0.3.0.0">
                        <path fill="none" stroke-width="0.99921262" stroke-opacity="1" id="path3761" d="m 0,58.464565 79.724409,0 0,-58.4645666520343 -79.724409,0 z" stroke="#ffffff" style="stroke-linecap:butt;stroke-linejoin:miter;stroke-miterlimit:4;stroke-dasharray:none"/>
                    </g>
                </g>
            </g>
            <g id="copper0">
                <g id="copper1">
                    <g transform="translate(0,993.89762)">
                        <g id="0.3.1.0">
                            <path fill="none" stroke-width="3.54330707" stroke-opacity="1" id="connector2pin" d="m 13.110236,29.232283 a 4.0748034,4.0748034 0 1 1 -8.1496065,0 4.0748034,4.0748034 0 1 1 8.1496065,0 z" stroke="#f7bd13" style="opacity:0.98000004;stroke-miterlimit:4;stroke-dasharray:none"/>
                        </g>
                    </g>
                    <g transform="translate(7.2637798,1015.1575)">
                        <g id="0.3.1.1">
                            <path fill="none" stroke-width="3.54330707" stroke-opacity="1" id="path3782-7" d="m 13.110236,29.232283 a 4.0748034,4.0748034 0 1 1 -8.1496065,0 4.0748034,4.0748034 0 1 1 8.1496065,0 z" stroke="#ffffff" style="opacity:0.98000004;stroke-miterlimit:4;stroke-dasharray:none"/>
                        </g>
                    </g>
                    <g transform="translate(50.314961,1015.1575)">
                        <g id="0.3.1.2">
                            <path fill="none" stroke-width="3.54330707" stroke-opacity="1" id="path3782-7-5" d="m 13.110236,29.232283 a 4.0748034,4.0748034 0 1 1 -8.1496065,0 4.0748034,4.0748034 0 1 1 8.1496065,0 z" stroke="#ffffff" style="opacity:0.98000004;stroke-miterlimit:4;stroke-dasharray:none"/>
                        </g>
                    </g>
                    <g transform="translate(7.2637798,1015.1575)">
                        <g id="0.3.1.3">
                            <path fill="none" stroke-width="3.54330707" stroke-opacity="1" id="connector1pin" d="m 13.110236,29.232283 a 4.0748034,4.0748034 0 1 1 -8.1496065,0 4.0748034,4.0748034 0 1 1 8.1496065,0 z" stroke="#f7bd13" style="opacity:0.98000004;stroke-miterlimit:4;stroke-dasharray:none"/>
                        </g>
                    </g>
                    <g transform="translate(50.314961,1015.1575)">
                        <g id="0.3.1.4">
                            <path fill="none" stroke-width="3.54330707" stroke-opacity="1" id="connector0pin" d="m 13.110236,29.232283 a 4.0748034,4.0748034 0 1 1 -8.1496065,0 4.0748034,4.0748034 0 1 1 8.1496065,0 z" stroke="#f7bd13" style="opacity:0.98000004;stroke-miterlimit:4;stroke-dasharray:none"/>
                        </g>
                    </g>
                    <g transform="matrix(1,0,0,-1,7.2637798,1031.1023)">
                        <g id="0.3.1.5">
                            <path fill="none" stroke-width="3.54330707" stroke-opacity="1" id="connector4pin" d="m 13.110236,29.232283 a 4.0748034,4.0748034 0 1 1 -8.1496065,0 4.0748034,4.0748034 0 1 1 8.1496065,0 z" stroke="#f7bd13" style="opacity:0.98000004;stroke-miterlimit:4;stroke-dasharray:none"/>
                        </g>
                    </g>
                    <g transform="matrix(1,0,0,-1,50.314961,1031.1023)">
                        <g id="0.3.1.6">
                            <path fill="none" stroke-width="3.54330707" stroke-opacity="1" id="connector5pin" d="m 13.110236,29.232283 a 4.0748034,4.0748034 0 1 1 -8.1496065,0 4.0748034,4.0748034 0 1 1 8.1496065,0 z" stroke="#f7bd13" style="opacity:0.98000004;stroke-miterlimit:4;stroke-dasharray:none"/>
                        </g>
                    </g>
                </g>
            </g>
        </g>
    </g>
</svg>
