<?xml version='1.0' encoding='UTF-8' standalone='no'?>
<svg xmlns="http://www.w3.org/2000/svg" id="svg2" height="66.614174" viewBox="0 0 602.3622 740.15751" gorn="0" width="54.212597"  version="1.2">
    <desc >
        <referenceFile >songle_relay__816891ea98d82b0aed6dbb1a91__pcb__1d65fd96e803c5824f5d556ff664efe9.svg</referenceFile>
    </desc>
    <g id="copper0" gorn="0.1" >
        <g id="copper1" gorn="0.1.0" >
            <metadata id="metadata34" >
                <rdf:RDF xmlns:rdf="http://www.w3.org/1999/02/22-rdf-syntax-ns#">
                    <cc:Work xmlns:cc="http://creativecommons.org/ns#" rdf:about="" xmlns:rdf="http://www.w3.org/1999/02/22-rdf-syntax-ns#">
                        <dc:format xmlns:dc="http://purl.org/dc/elements/1.1/">image/svg+xml</dc:format>
                        <dc:type xmlns:dc="http://purl.org/dc/elements/1.1/" rdf:resource="http://purl.org/dc/dcmitype/StillImage" xmlns:rdf="http://www.w3.org/1999/02/22-rdf-syntax-ns#"/>
                        <dc:title xmlns:dc="http://purl.org/dc/elements/1.1/"/>
                    </cc:Work>
                </rdf:RDF>
            </metadata>
            <defs id="defs32" />
            <rect id="rect19" stroke="#ffbf00" x="45" y="96.968513" stroke-width="20" height="55" gorn="0.1.0.2" width="55" fill="none" />
            <g transform="translate(12.499998,63.917335)" >
                <g >
                    <g >
                        <g >
                            <g >
                                <circle d="M 87.5,60 C 87.5,75.187831 75.187831,87.5 60,87.5 44.812169,87.5 32.5,75.187831 32.5,60 32.5,44.812169 44.812169,32.5 60,32.5 75.187831,32.5 87.5,44.812169 87.5,60 z" id="connector0pin" stroke="#ffbf00" cx="60" stroke-width="20" cy="60" gorn="0.1.0.3.0.0.0.0.0" fill="none"  r="27.5"/>
                            </g>
                        </g>
                    </g>
                </g>
            </g>
            <g transform="translate(12.5,57.935284)" >
                <g >
                    <g >
                        <g >
                            <g >
                                <circle d="m 87.5,560 c 0,15.18783 -12.312169,27.5 -27.5,27.5 -15.187831,0 -27.5,-12.31217 -27.5,-27.5 0,-15.18783 12.312169,-27.5 27.5,-27.5 15.187831,0 27.5,12.31217 27.5,27.5 z" id="connector2pin" stroke="#ffbf00" cx="60" stroke-width="20" cy="560" gorn="0.1.0.4.0.0.0.0.0" fill="none"  r="27.5"/>
                            </g>
                        </g>
                    </g>
                </g>
            </g>
            <g transform="translate(173.33335,63.213061)" >
                <g >
                    <g >
                        <g >
                            <g >
                                <circle d="m 387.5,560 c 0,15.18783 -12.31217,27.5 -27.5,27.5 -15.18783,0 -27.5,-12.31217 -27.5,-27.5 0,-15.18783 12.31217,-27.5 27.5,-27.5 15.18783,0 27.5,12.31217 27.5,27.5 z" id="connector3pin" stroke="#ffbf00" cx="360" stroke-width="20" cy="560" gorn="0.1.0.5.0.0.0.0.0" fill="none"  r="27.5"/>
                            </g>
                        </g>
                    </g>
                </g>
            </g>
            <g transform="translate(-65.13779,-97.620288)" >
                <g >
                    <g >
                        <g >
                            <g >
                                <circle d="m 387.5,160 c 0,15.18783 -12.31217,27.5 -27.5,27.5 -15.18783,0 -27.5,-12.31217 -27.5,-27.5 0,-15.18783 12.31217,-27.5 27.5,-27.5 15.18783,0 27.5,12.31217 27.5,27.5 z" id="connector4pin" stroke="#ffbf00" cx="360" stroke-width="20" cy="160" gorn="0.1.0.6.0.0.0.0.0" fill="none"  r="27.5"/>
                            </g>
                        </g>
                    </g>
                </g>
            </g>
            <g transform="translate(168.05557,63.917335)" >
                <g >
                    <g >
                        <g >
                            <g >
                                <circle d="m 387.5,60 c 0,15.187831 -12.31217,27.5 -27.5,27.5 -15.18783,0 -27.5,-12.312169 -27.5,-27.5 0,-15.187831 12.31217,-27.5 27.5,-27.5 15.18783,0 27.5,12.312169 27.5,27.5 z" id="connector5pin" stroke="#ffbf00" cx="360" stroke-width="20" cy="60" gorn="0.1.0.7.0.0.0.0.0" fill="none"  r="27.5"/>
                            </g>
                        </g>
                    </g>
                </g>
            </g>
        </g>
    </g>
</svg>
