<?xml version='1.0' encoding='utf-8'?>
<!-- Generator: Adobe Illustrator 23.0.6, SVG Export Plug-In . SVG Version: 6.00 Build 0)  -->
<svg xmlns="http://www.w3.org/2000/svg" version="1.1" width="1.1in" enable-background="new 0 0 79.2 72" xml:space="preserve" gorn="0" id="Layer_1"  xmlns:xml="http://www.w3.org/XML/1998/namespace" height="1in" viewBox="0 0 79.2 72" x="0px" y="0px">
    <desc >
        <referenceFile >Non_Latching Relay Breakout rev C_schematic.svg</referenceFile>
    </desc>
    <desc >Fritzing schematic generated by brd2svg</desc>
    <g gorn="0.2" id="schematic" >
        <rect width="49.95" stroke="#000000" stroke-linecap="round"  height="43.2" fill="none" x="14.4" stroke-width="0.9" y="14.4" stroke-linejoin="round"/>
        <g transform="matrix(1 0 0 1 36.2837 32.4358)" >
            <g >
                <text gorn="0.2.1.0.0" id="label"  font-family="'DroidSans'" font-size="2.8">Non</text>
            </g>
        </g>
        <g transform="matrix(1 0 0 1 32.988 36.35)" >
            <g >
                <text  font-family="'DroidSans'" font-size="2.8">Latching</text>
            </g>
        </g>
        <g transform="matrix(1 0 0 1 35.3943 40.1789)" >
            <g >
                <text  font-family="'DroidSans'" font-size="2.8">Relay</text>
            </g>
        </g>
        <g transform="matrix(1 0 0 1 32.448 43.55)" >
            <g >
                <text  font-family="'DroidSans'" font-size="2.8">Breakout</text>
            </g>
        </g>
        <g transform="matrix(1 0 0 1 32.988 28.45)" >
            <g >
                <text  font-family="'DroidSans'" font-size="2.8">STEMMA</text>
            </g>
        </g>
        <line stroke="#787878" stroke-linecap="round"  y1="21.6" y2="21.6" fill="none" x1="0.35" stroke-width="0.7" x2="14.4" stroke-linejoin="round"/>
        <rect width="14.4" gorn="0.2.7" id="connector42pin"  height="0.7" fill="none" x="0" y="21.25"/>
        <rect width="0" gorn="0.2.8" id="connector42terminal"  height="0.7" fill="none" x="0" y="21.25"/>
        <g transform="matrix(1 0 0 1 15.8 22.3)" >
            <g >
                <text gorn="0.2.9.0.0" id="label42"  fill="#8C8C8C" font-family="'DroidSans'" font-size="2.8">SIGNAL</text>
            </g>
        </g>
        <line stroke="#787878" stroke-linecap="round"  y1="28.8" y2="28.8" fill="none" x1="0.35" stroke-width="0.7" x2="14.4" stroke-linejoin="round"/>
        <rect width="14.4" gorn="0.2.11" id="connector45pin"  height="0.7" fill="none" x="0" y="28.45"/>
        <rect width="0" gorn="0.2.12" id="connector45terminal"  height="0.7" fill="none" x="0" y="28.45"/>
        <g transform="matrix(1 0 0 1 15.8 29.5)" >
            <g >
                <text gorn="0.2.13.0.0" id="label45"  fill="#8C8C8C" font-family="'DroidSans'" font-size="2.8">NC</text>
            </g>
        </g>
        <line stroke="#787878" stroke-linecap="round"  y1="36" y2="36" fill="none" x1="0.35" stroke-width="0.7" x2="14.4" stroke-linejoin="round"/>
        <rect width="14.4" gorn="0.2.15" id="connector47pin"  height="0.7" fill="none" x="0" y="35.65"/>
        <rect width="0" gorn="0.2.16" id="connector47terminal"  height="0.7" fill="none" x="0" y="35.65"/>
        <g transform="matrix(1 0 0 1 15.8 36.7)" >
            <g >
                <text gorn="0.2.17.0.0" id="label47"  fill="#8C8C8C" font-family="'DroidSans'" font-size="2.8">COM</text>
            </g>
        </g>
        <line stroke="#787878" stroke-linecap="round"  y1="43.2" y2="43.2" fill="none" x1="0.35" stroke-width="0.7" x2="14.4" stroke-linejoin="round"/>
        <rect width="14.4" gorn="0.2.19" id="connector49pin"  height="0.7" fill="none" x="0" y="42.85"/>
        <rect width="0" gorn="0.2.20" id="connector49terminal"  height="0.7" fill="none" x="0" y="42.85"/>
        <g transform="matrix(1 0 0 1 15.8 43.9)" >
            <g >
                <text gorn="0.2.21.0.0" id="label49"  fill="#8C8C8C" font-family="'DroidSans'" font-size="2.8">NO</text>
            </g>
        </g>
        <line stroke="#787878" stroke-linecap="round"  y1="21.6" y2="21.6" fill="none" x1="64.45" stroke-width="0.7" x2="78.8501" stroke-linejoin="round"/>
        <rect width="14.4" gorn="0.2.23" id="connector37pin"  height="0.7" fill="none" x="64.8" y="21.25"/>
        <rect width="0" gorn="0.2.24" id="connector37terminal"  height="0.7" fill="none" x="79.2" y="21.25"/>
        <g transform="matrix(1 0 0 1 61.4723 22.3)" >
            <g >
                <text gorn="0.2.25.0.0" id="label37"  fill="#8C8C8C" font-family="'DroidSans'" font-size="2.8">1</text>
            </g>
        </g>
        <line stroke="#787878" stroke-linecap="round"  y1="28.8" y2="28.8" fill="none" x1="64.45" stroke-width="0.7" x2="78.8501" stroke-linejoin="round"/>
        <rect width="14.4" gorn="0.2.27" id="connector38pin"  height="0.7" fill="none" x="64.8" y="28.45"/>
        <rect width="0" gorn="0.2.28" id="connector38terminal"  height="0.7" fill="none" x="79.2" y="28.45"/>
        <g transform="matrix(1 0 0 1 61.4723 29.5)" >
            <g >
                <text gorn="0.2.29.0.0" id="label38"  fill="#8C8C8C" font-family="'DroidSans'" font-size="2.8">2</text>
            </g>
        </g>
        <line stroke="#787878" stroke-linecap="round"  y1="36" y2="36" fill="none" x1="64.45" stroke-width="0.7" x2="78.8501" stroke-linejoin="round"/>
        <rect width="14.4" gorn="0.2.31" id="connector39pin"  height="0.7" fill="none" x="64.8" y="35.65"/>
        <rect width="0" gorn="0.2.32" id="connector39terminal"  height="0.7" fill="none" x="79.2" y="35.65"/>
        <g transform="matrix(1 0 0 1 61.4723 36.7)" >
            <g >
                <text gorn="0.2.33.0.0" id="label39"  fill="#8C8C8C" font-family="'DroidSans'" font-size="2.8">3</text>
            </g>
        </g>
        <line stroke="#787878" stroke-linecap="round"  y1="0.35" y2="14.4" fill="none" x1="36" stroke-width="0.7" x2="36" stroke-linejoin="round"/>
        <rect width="0.7" gorn="0.2.35" id="connector41pin"  height="14.4" fill="none" x="35.65"/>
        <polygon gorn="0.2.36" id="connector41terminal" points="35.65,0 36.35,0 36.35,0 "  fill="none"/>
        <g transform="matrix(1, 0, 0, 1, 37.4, 16)" >
            <g >
                <g >
                    <g transform="rotate(270)" >
                        <g >
                            <g >
                                <g transform="matrix(1 0 0 1 -5.7256 2.241406e-05)" >
                                    <g >
                                        <text gorn="0.2.37.0.0.0.0.0.0.0.0" id="label41"  fill="#8C8C8C" font-family="'DroidSans'" font-size="2.8">VIN</text>
                                    </g>
                                </g>
                            </g>
                        </g>
                    </g>
                </g>
            </g>
        </g>
        <line stroke="#787878" stroke-linecap="round"  y1="57.6" y2="71.65" fill="none" x1="36" stroke-width="0.7" x2="36" stroke-linejoin="round"/>
        <rect width="0.7" gorn="0.2.39" id="connector40pin"  height="14.4" fill="none" x="35.65" y="57.6"/>
        <polygon gorn="0.2.40" id="connector40terminal" points="35.65,72 36.35,72 36.35,72 "  fill="none"/>
        <g transform="matrix(1, 0, 0, 1, 37.4, 56)" >
            <g >
                <g >
                    <g transform="rotate(270)" >
                        <g >
                            <g >
                                <g transform="matrix(1 0 0 1 0 2.241406e-05)" >
                                    <g >
                                        <text gorn="0.2.41.0.0.0.0.0.0.0.0" id="label40"  fill="#8C8C8C" font-family="'DroidSans'" font-size="2.8">GND</text>
                                    </g>
                                </g>
                            </g>
                        </g>
                    </g>
                </g>
            </g>
        </g>
    </g>
</svg>
