<?xml version='1.0' encoding='UTF-8' standalone='no'?>
<!-- Created with Inkscape (http://www.inkscape.org/) -->
<svg xmlns="http://www.w3.org/2000/svg" height="23.76" xml:space="preserve" xmlns:xml="http://www.w3.org/XML/1998/namespace" viewBox="0 0 21.6 23.76" gorn="0"  width="21.6" id="svg2" version="1.1">
    <desc>
        <referenceFile>SN74LS20N_icon.svg</referenceFile>
    </desc>
    <g gorn="0.0"  id="icon">
        <rect height="19.438" x="0" style="fill:#303030" y="2.1600001" gorn="0.0.0"  width="21.6" id="middle"/>
        <rect height="1.771" x="0" style="fill:#3d3d3d" y="2.1600001" gorn="0.0.1"  width="21.6" id="top"/>
        <rect height="1.771" x="0" y="19.827999" gorn="0.0.2"  width="21.6" id="bottom"/>
        <polygon points="0.54,19.828 0,21.6 0,2.16 0.54,3.931 " style="fill:#1f1f1f" gorn="0.0.3"  id="left"/>
        <polygon points="0.404,9.778 0.404,11.88 3.6,11.88 3.6,8.28 0.54,8.251 " style="fill:#1c1c1c" gorn="0.0.4"  id="left-upper-rect"/>
        <polygon points="3.6,11.88 0.404,11.88 0.404,13.983 0.54,15.516 3.6,15.516 " style="fill:#383838" gorn="0.0.5"  id="left-lower-rect"/>
        <path style="fill:#262626" d="m 0.404,9.778 v 4.197 C 1.463,13.853 2.291,12.967 2.291,11.872 2.289,10.779 1.469,9.9 0.404,9.778 z" gorn="0.0.6"  id="slot"/>
        <path style="fill:#303030" d="m 0.54,3.931 v 4.313 c 1.713,0.322 3.017,1.82 3.017,3.628 0,1.808 -1.296,3.313 -3.017,3.637 v 0.007 h 3.6 V 3.931 h -3.6 z" gorn="0.0.7"  id="cover"/>
        <circle style="fill:#212121" gorn="0.0.8"  cy="16.898001" id="circle12" r="1.483" cx="4.6799998"/>
        <text x="5.7674866" style="font-size:5.76000023px;fill:#dddddd;font-family:OCRA" y="10.997759" gorn="0.0.9"  id="text16">74LS</text>
        <rect height="3.125" x="2.52" style="fill:#8c8c8c" y="20.635" gorn="0.0.10"  width="2.1600001" id="connector0pin"/>
        <rect height="2.1600001" x="2.52" style="fill:#8c8c8c" y="21.6" gorn="0.0.11"  width="2.1600001" id="connector0terminal"/>
        <polygon points="4.68,22.075 6.12,21.412 6.12,20.635 2.52,20.635 2.52,22.075 " style="fill:#8c8c8c" gorn="0.0.12"  id="polygon20"/>
        <rect height="3.125" x="2.52" style="fill:#8c8c8c" y="0" gorn="0.0.13"  width="2.1600001" id="connector5pin"/>
        <rect height="2.1600001" x="2.52" style="fill:#8c8c8c" y="0" gorn="0.0.14"  width="2.1600001" id="connector5terminal"/>
        <polygon points="4.68,1.685 2.52,1.685 2.52,3.125 6.12,3.125 6.12,2.347 " style="fill:#8c8c8c" gorn="0.0.15"  id="polygon24"/>
        <rect height="3.125" x="16.92" style="fill:#8c8c8c" y="20.635" gorn="0.0.16"  width="2.1600001" id="connector2pin"/>
        <rect height="2.1600001" x="16.92" style="fill:#8c8c8c" y="21.6" gorn="0.0.17"  width="2.1600001" id="connector2terminal"/>
        <polygon points="16.92,22.075 19.08,22.075 19.08,20.635 15.48,20.635 15.48,21.412 " style="fill:#8c8c8c" gorn="0.0.18"  id="polygon28"/>
        <rect height="3.125" x="16.92" style="fill:#8c8c8c" y="0" gorn="0.0.19"  width="2.1600001" id="connector3pin"/>
        <rect height="2.1600001" x="16.92" style="fill:#8c8c8c" y="0" gorn="0.0.20"  width="2.1600001" id="connector3terminal"/>
        <polygon points="16.92,1.685 15.48,2.347 15.48,3.125 19.08,3.125 19.08,1.685 " style="fill:#8c8c8c" gorn="0.0.21"  id="polygon32"/>
        <rect height="3.125" x="9.7200003" style="fill:#8c8c8c" y="20.635" gorn="0.0.22"  width="2.1600001" id="connector1pin"/>
        <rect height="2.1600001" x="9.7200003" style="fill:#8c8c8c" y="21.6" gorn="0.0.23"  width="2.1600001" id="connector1terminal"/>
        <polygon points="9.72,22.075 11.88,22.075 13.32,21.412 13.32,20.635 8.28,20.635 8.28,21.412 " style="fill:#8c8c8c" gorn="0.0.24"  id="polygon36"/>
        <rect height="3.125" x="9.7200003" style="fill:#8c8c8c" y="0" gorn="0.0.25"  width="2.1600001" id="connector4pin"/>
        <rect height="2.1600001" x="9.7200003" style="fill:#8c8c8c" y="0" gorn="0.0.26"  width="2.1600001" id="connector4terminal"/>
        <polygon points="11.88,1.685 9.72,1.685 8.28,2.347 8.28,3.125 13.32,3.125 13.32,2.347 " style="fill:#8c8c8c" gorn="0.0.27"  id="polygon40"/>
        <g xml:space="preserve" xmlns:xml="http://www.w3.org/XML/1998/namespace" style="font-size:6px;font-style:normal;font-weight:normal;line-height:125%;letter-spacing:0px;word-spacing:0px;fill:#f2f2f2;fill-opacity:1;stroke:none;font-family:Sans" gorn="0.0.28"  id="text3013">
            <text x="9.0156116" y="16.954098" gorn="0.0.28.0"  id="tspan3015">20</text>
        </g>
    </g>
</svg>
