<?xml version='1.0' encoding='UTF-8' standalone='no'?>
<svg xmlns="http://www.w3.org/2000/svg" xml:space="preserve"  version="1.1" height="25mm" x="0" id="svg8187" y="0" xmlns:xml="http://www.w3.org/XML/1998/namespace" nable-background="new 0 0 21.969 21.969" viewBox="0 0 67.322835 88.582677" width="19mm" gorn="0">
    <desc >
        <referenceFile >ESP-12_breadboard.svg</referenceFile>
    </desc>
    <metadata  id="metadata8192">
        <rdf:RDF xmlns:rdf="http://www.w3.org/1999/02/22-rdf-syntax-ns#">
            <cc:Work rdf:about="" xmlns:rdf="http://www.w3.org/1999/02/22-rdf-syntax-ns#" xmlns:cc="http://creativecommons.org/ns#">
                <dc:format xmlns:dc="http://purl.org/dc/elements/1.1/">image/svg+xml</dc:format>
                <dc:type rdf:resource="http://purl.org/dc/dcmitype/StillImage" xmlns:dc="http://purl.org/dc/elements/1.1/" xmlns:rdf="http://www.w3.org/1999/02/22-rdf-syntax-ns#"/>
                <dc:title xmlns:dc="http://purl.org/dc/elements/1.1/"/>
            </cc:Work>
        </rdf:RDF>
    </metadata>
    <g  transform="translate(0,3.5433071)">
        <g >
            <g  id="silkscreen" style="display:inline" gorn="0.2.0.0">
                <rect stroke="none" stroke-width="0.36141732"  fill="#003380" height="88.58268" fill-opacity="1" x="0" id="rect9054" y="-3.5433071" style="display:inline;stroke-miterlimit:0;stroke-dasharray:none;" stroke-opacity="1" width="67.322838" gorn="0.2.0.0.0"/>
                <g  transform="matrix(0,-1,1.2190595,0,2.9065317,84.571101)">
                    <g >
                        <g  id="g9452" gorn="0.2.0.0.1.0.0">
                            <g  id="g9454" gorn="0.2.0.0.1.0.0.0">
                                <g  id="g9456" gorn="0.2.0.0.1.0.0.0.0">
                                    <g  id="g9458" gorn="0.2.0.0.1.0.0.0.0.0">
                                        <g  id="g9460" gorn="0.2.0.0.1.0.0.0.0.0.0">
                                            <g  id="g9462" gorn="0.2.0.0.1.0.0.0.0.0.0.0">
                                                <g  id="g9464" gorn="0.2.0.0.1.0.0.0.0.0.0.0.0">
                                                    <path stroke="none" stroke-width="0"  d="m 56.717457,6.0068966 28.027047,0 c 0.917887,0.1046 1.693279,0.4704389 1.990086,1.7136854 l 0,3.09569 c -0.136536,1.231994 -0.793882,1.502492 -1.603125,1.492564 l -12.051077,0 0,2.100647 12.106358,0 c 0.875068,0.01526 1.430708,0.464395 1.382004,1.658405 l 0,2.874569 c -0.100715,1.404156 -0.717826,1.646422 -1.437285,1.658405 l -12.216918,0 0,1.768966 12.161638,0 c 0.907458,0.05238 1.284831,0.376469 1.382005,1.492564 l 0,3.316811 c -0.03912,0.882597 -0.460765,1.446417 -1.437285,1.547844 l -11.940517,0 0,2.155927 11.774677,0 c 0.870375,0.04745 1.397377,0.583992 1.382004,1.879526 l 0,12.076096 c -0.101822,1.083054 -0.548613,1.913132 -2.202543,1.857974 l 0,-13.436548 -12.391423,0 c -0.732111,-0.01316 -1.075441,-0.387329 -1.077963,-1.077964 l 0,-4.726455 c 0.0685,-0.52188 0.313732,-0.899168 0.953583,-0.953582 l 12.451859,0 0,-2.086827 -12.106358,0 c -0.781642,0.111642 -1.175567,-0.112736 -1.17543,-0.678635 l 0,-4.2413 c 0.04297,-0.615339 0.04647,-1.248772 1.306357,-1.306358 l 12.583513,0 0,-1.623491 -12.935561,0 c -0.780002,-0.120818 -0.844662,-0.480084 -0.856842,-0.856843 l 0,-4.560614 c -0.02445,-0.744226 0.362141,-1.104815 1.119423,-1.119424 l 12.72826,0 0,-2.0868263 -19.513901,0 0,23.4387933 c 0.01614,1.915409 -0.540266,1.712417 -1.024862,1.775113 -1.110381,0.141382 -1.150847,-0.884417 -1.137044,-1.969418 l 0,-23.1892082 -6.29596,0 z" fill="#9a916c" fill-opacity="1" id="path4088" style="stroke-linecap:butt;stroke-linejoin:miter;stroke-miterlimit:4;stroke-dasharray:none;" stroke-opacity="1" gorn="0.2.0.0.1.0.0.0.0.0.0.0.0.0"/>
                                                </g>
                                            </g>
                                        </g>
                                    </g>
                                </g>
                            </g>
                        </g>
                    </g>
                </g>
                <rect stroke="#ffffff" stroke-width="0.35540012"  fill="#cccccf" height="51.387856" fill-opacity="1" x="10.626912" id="rect10543" y="30.111219" style="stroke-miterlimit:0;stroke-dasharray:none;" stroke-opacity="1" width="46.069008" gorn="0.2.0.0.2"/>
                <g  transform="matrix(5.9521468,0,0,5.9298226,-163.84408,-28.93695)">
                    <g >
                        <g  id="g4691" gorn="0.2.0.0.3.0.0">
                            <path stroke="none"  d="m 31.130376,16.886617 c -1.261068,-1.195949 -1.307483,-3.355928 -0.03535,-4.543161 1.608097,-1.56946 3.358296,-1.088011 4.578517,-0.03536 l -0.22981,0.282844 c -1.632179,-1.622884 -3.498685,-0.682878 -4.136575,-10e-7 -0.858,1.001712 -1.334141,2.568016 0.01768,4.048187 z" fill="#696969" fill-opacity="1" id="path3901" gorn="0.2.0.0.3.0.0.0"/>
                            <g  transform="matrix(0.8,0,0,0.8,0.44194174,0.31819705)">
                                <g >
                                    <g  id="g9931" gorn="0.2.0.0.3.0.0.1.0.0">
                                        <g  id="g9933" gorn="0.2.0.0.3.0.0.1.0.0.0">
                                            <g  id="g9935" gorn="0.2.0.0.3.0.0.1.0.0.0.0">
                                                <g  id="g9937" gorn="0.2.0.0.3.0.0.1.0.0.0.0.0">
                                                    <g  id="g9939" gorn="0.2.0.0.3.0.0.1.0.0.0.0.0.0">
                                                        <g  id="g9941" gorn="0.2.0.0.3.0.0.1.0.0.0.0.0.0.0">
                                                            <g  id="g9943" gorn="0.2.0.0.3.0.0.1.0.0.0.0.0.0.0.0">
                                                                <path stroke="none"  d="m 39.708467,15.661341 a 0.6187185,0.60766994 0 1 1 -1.237437,0 0.6187185,0.60766994 0 1 1 1.237437,0 z" fill="#696969" fill-opacity="1" id="path4671" gorn="0.2.0.0.3.0.0.1.0.0.0.0.0.0.0.0.0"/>
                                                            </g>
                                                        </g>
                                                    </g>
                                                </g>
                                            </g>
                                        </g>
                                    </g>
                                </g>
                            </g>
                            <path stroke="none"  d="m 31.02431,13.563215 c 1.114975,0.303753 1.732082,-0.08343 1.378859,-1.325825 0.583333,-0.585435 1.34396,-0.520792 2.209708,-0.07071 0.201144,1.188966 -0.141028,2.052685 -0.777817,2.740038 -0.781047,0.772232 -1.730626,1.040736 -2.828427,0.866206 -0.292736,-0.316458 -0.265511,-0.623759 -0.07071,-0.883883 0.897597,0.190438 1.630124,-0.0318 2.245064,-0.548008 0.562402,-0.662055 0.686356,-1.406319 0.494975,-2.209709 -0.115774,-0.01743 -0.243921,-0.03415 -0.406587,0.01768 0.313755,0.714152 0.111178,1.317662 -0.229809,1.891511 -0.60546,0.650708 -1.416151,0.715043 -2.351131,0.424264 0.0273,-0.469848 0.16848,-0.711919 0.335877,-0.901562 z" fill="#696969" fill-opacity="1" id="path4673" gorn="0.2.0.0.3.0.0.2"/>
                            <path stroke="none"  d="m 34.96643,12.803076 c 0.522473,-0.195982 0.748708,0.06885 0.848528,0.530329 -0.480543,2.633632 -2.000152,3.272259 -3.6416,3.676955 -0.521009,-0.165403 -0.692577,-0.465207 -0.60104,-0.866205 2.728111,-0.445966 3.224341,-1.825263 3.394112,-3.341079 z" fill="#696969" fill-opacity="1" id="path4675" gorn="0.2.0.0.3.0.0.3"/>
                            <path stroke="none"  d="m 33.110275,17.116427 c 1.31791,-0.531059 2.414962,-1.29311 2.793072,-2.81075 0.0469,-0.09146 0.213923,-0.08976 0.212132,0.141422 -0.09691,1.951533 -1.123202,2.844604 -2.916815,2.863782 -0.162846,-0.04663 -0.09737,-0.124394 -0.08839,-0.194454 z" fill="#696969" fill-opacity="1" id="path4677" gorn="0.2.0.0.3.0.0.4"/>
                        </g>
                    </g>
                </g>
            </g>
        </g>
    </g>
    <g  transform="translate(0,-963.77952)">
        <g >
            <g  id="copper1" style="display:inline" gorn="0.3.0.0">
                <rect stroke="none" stroke-width="0"  fill="#f7bd13" height="3.5433071" fill-opacity="1" x="1.7716535" y="1047.0472" id="connector1pin" style="stroke-miterlimit:0;stroke-dasharray:none" width="7.0866146" gorn="0.3.0.0.0"/>
                <rect stroke="none" stroke-width="0"  fill="#f7bd13" height="3.5433071" fill-opacity="1" x="1.7716535" y="1039.9607" id="connector12pin" style="stroke-miterlimit:0;stroke-dasharray:none" width="7.0866146" gorn="0.3.0.0.1"/>
                <rect stroke="none" stroke-width="0"  fill="#f7bd13" height="3.5433071" fill-opacity="1" x="1.7716535" y="1032.874" id="connector11pin" style="display:inline;stroke-miterlimit:0;stroke-dasharray:none" width="7.0866151" gorn="0.3.0.0.2"/>
                <rect stroke="none" stroke-width="0"  fill="#f7bd13" height="3.5433071" fill-opacity="1" x="1.7716535" y="1025.7875" id="connector10pin" style="display:inline;stroke-miterlimit:0;stroke-dasharray:none" width="7.0866156" gorn="0.3.0.0.3"/>
                <rect stroke="none" stroke-width="0"  fill="#f7bd13" height="3.5433071" fill-opacity="1" x="1.7716535" y="1018.7008" id="connector4pin" style="display:inline;stroke-miterlimit:0;stroke-dasharray:none" width="7.086616" gorn="0.3.0.0.4"/>
                <rect stroke="none" stroke-width="0"  fill="#f7bd13" height="3.5433071" fill-opacity="1" x="1.7716535" y="1011.6142" id="connector6pin" style="display:inline;stroke-miterlimit:0;stroke-dasharray:none" width="7.0866146" gorn="0.3.0.0.5"/>
                <rect stroke="none" stroke-width="0"  fill="#f7bd13" height="3.5433071" fill-opacity="1" x="1.7716535" y="1004.5276" id="connector9pin" style="display:inline;stroke-miterlimit:0;stroke-dasharray:none" width="7.0866146" gorn="0.3.0.0.6"/>
                <rect stroke="none" stroke-width="0"  fill="#f7bd13" height="3.5433071" fill-opacity="1" x="1.7716535" y="997.44098" id="connector16pin" style="display:inline;stroke-miterlimit:0;stroke-dasharray:none" width="7.0866151" gorn="0.3.0.0.7"/>
                <rect stroke="none" stroke-width="0"  fill="#f7bd13" height="3.5433071" fill-opacity="1" x="58.464569" y="1047.0472" id="connector7pin" style="display:inline;stroke-miterlimit:0;stroke-dasharray:none" width="7.0866132" gorn="0.3.0.0.8"/>
                <rect stroke="none" stroke-width="0"  fill="#f7bd13" height="3.5433071" fill-opacity="1" x="58.464569" y="1039.9607" id="connector15pin" style="display:inline;stroke-miterlimit:0;stroke-dasharray:none" width="7.0866132" gorn="0.3.0.0.9"/>
                <rect stroke="none" stroke-width="0"  fill="#f7bd13" height="3.5433071" fill-opacity="1" x="58.464569" y="1032.8741" id="connector5pin" style="display:inline;stroke-miterlimit:0;stroke-dasharray:none" width="7.0866137" gorn="0.3.0.0.10"/>
                <rect stroke="none" stroke-width="0"  fill="#f7bd13" height="3.5433071" fill-opacity="1" x="58.464569" y="1025.7875" id="connector3pin" style="display:inline;stroke-miterlimit:0;stroke-dasharray:none" width="7.0866141" gorn="0.3.0.0.11"/>
                <rect stroke="none" stroke-width="0"  fill="#f7bd13" height="3.5433071" fill-opacity="1" x="58.464569" y="1018.7009" id="connector14pin" style="display:inline;stroke-miterlimit:0;stroke-dasharray:none" width="7.0866146" gorn="0.3.0.0.12"/>
                <rect stroke="none" stroke-width="0"  fill="#f7bd13" height="3.5433071" fill-opacity="1" x="58.464569" y="1011.6143" id="connector13pin" style="display:inline;stroke-miterlimit:0;stroke-dasharray:none" width="7.0866132" gorn="0.3.0.0.13"/>
                <rect stroke="none" stroke-width="0"  fill="#f7bd13" height="3.5433071" fill-opacity="1" x="58.464569" y="1004.5277" id="connector0pin" style="display:inline;stroke-miterlimit:0;stroke-dasharray:none" width="7.0866132" gorn="0.3.0.0.14"/>
                <rect stroke="none" stroke-width="0"  fill="#f7bd13" height="3.5433071" fill-opacity="1" x="58.464569" y="997.44104" id="connector8pin" style="display:inline;stroke-miterlimit:0;stroke-dasharray:none" width="7.0866137" gorn="0.3.0.0.15"/>
            </g>
        </g>
    </g>
</svg>
